<svg width="40" height="40" xmlns="http://www.w3.org/2000/svg">
  <path d="M39.95 8.48c-.084-.248-.423-.414-.678-.29l-3.904 1.365c-1.655.538-3.564 1.076-5.219 1.365-3.564.662-6.11-2.233-6.153-2.233-.127-.166-.382-.249-.594-.166-.042 0-.34.124-.764.29.425-4.054 2.801-7.984 2.843-8.025.17-.207.128-.455-.042-.62a.604.604 0 0 0-.636-.125c-.128.083-3.522 1.655-7.044 4.344-4.795 3.681-7.426 7.487-7.765 11.292-.255 3.103 1.782 5.13 3.734 7.032l.34.331c.678 1.738.508 3.765-.468 5.916-1.74 3.888-5.643 7.238-10.438 9.058-1.527.58-2.8.993-2.8.993-.255.083-.425.373-.34.62a.532.532 0 0 0 .51.373h.127c.806-.165 5.94-1.49 10.947-3.93l1.018-.496c6.196-3.227 9.505-6.99 9.887-11.169.255-2.647-1.315-4.426-3.013-6.039 2.165-3.02 9.166-5.377 9.208-5.377l6.917-2.4c2.206-.703 3.904-1.365 4.03-1.406.298-.124.425-.414.298-.703zm-18.372.869c-1.74.868-4.286 2.44-5.856 4.55a5.471 5.471 0 0 1-.382-2.565c.255-2.854 3.31-6.163 3.777-6.66a47.968 47.968 0 0 1 4.667-2.937c-.848 1.738-2.037 4.675-2.206 7.612zM8.763 36.236c2.63-1.862 4.668-4.26 5.856-6.825.764-1.655 1.06-3.31.933-4.799.934 1.117 1.57 2.317 1.443 3.764-.382 3.64-4.88 6.247-4.922 6.288a47.662 47.662 0 0 1-3.31 1.572zM21.45 24.323c-.254 2.854-2.079 5.294-4.582 7.321.594-.91 1.06-1.985 1.145-3.143.255-2.73-1.654-4.633-3.522-6.453-1.867-1.862-3.649-3.6-3.437-6.205.255-3.061 2.165-5.791 4.498-8.108-.636 1.117-1.188 2.358-1.273 3.558-.34 3.35 1.91 5.418 3.862 7.239 1.824 1.696 3.522 3.267 3.31 5.79zm-2.758-6.701c-.933-.87-1.782-1.696-2.418-2.648 1.824-2.937 5.983-4.84 7.213-5.336.637.62 2.376 2.11 4.753 2.4-1.019.33-7.214 2.522-9.548 5.584z" fill="#FFF"/>
</svg>
