<?xml version="1.0" encoding="UTF-8" standalone="no"?>
<svg
   xmlns:dc="http://purl.org/dc/elements/1.1/"
   xmlns:cc="http://creativecommons.org/ns#"
   xmlns:rdf="http://www.w3.org/1999/02/22-rdf-syntax-ns#"
   xmlns:svg="http://www.w3.org/2000/svg"
   xmlns="http://www.w3.org/2000/svg"
   xmlns:sodipodi="http://sodipodi.sourceforge.net/DTD/sodipodi-0.dtd"
   xmlns:inkscape="http://www.inkscape.org/namespaces/inkscape"
   inkscape:version="1.0beta2 (2b71d25, 2019-12-03)"
   sodipodi:docname="blog_desktop.svg"
   id="svg130"
   style="fill-rule:evenodd;clip-rule:evenodd;stroke-linejoin:round;stroke-miterlimit:1.41421;"
   xml:space="preserve"
   version="1.1"
   viewBox="0 0 1099 409"
   height="100%"
   width="100%"><metadata
     id="metadata134"><rdf:RDF><cc:Work
         rdf:about=""><dc:format>image/svg+xml</dc:format><dc:type
           rdf:resource="http://purl.org/dc/dcmitype/StillImage" /><dc:title></dc:title></cc:Work></rdf:RDF></metadata><sodipodi:namedview
     inkscape:current-layer="g119"
     inkscape:window-maximized="1"
     inkscape:window-y="26"
     inkscape:window-x="50"
     inkscape:cy="204.5"
     inkscape:cx="740.05903"
     inkscape:zoom="1.0436761"
     showgrid="false"
     id="namedview132"
     inkscape:window-height="716"
     inkscape:window-width="1316"
     inkscape:pageshadow="2"
     inkscape:pageopacity="0"
     guidetolerance="10"
     gridtolerance="10"
     objecttolerance="10"
     borderopacity="1"
     inkscape:document-rotation="0"
     bordercolor="#666666"
     pagecolor="#ffffff" /><g
     id="g119"><circle
       id="circle91"
       style="fill:#ff520b"
       r="27.502001"
       cy="69.803444"
       cx="290.76221" /><path
       id="path95"
       style="fill:#cccccc;fill-rule:nonzero"
       d="M461.233,84.746c8.4,0 15.267,0.3 20.6,0.9c5.333,0.6 11,1.634 17,3.1l-1.8,13.4c-6.667,-0.666 -12.433,-1.133 -17.3,-1.4c-4.867,-0.266 -11.033,-0.4 -18.5,-0.4c-9.2,0 -16.333,1.734 -21.4,5.2c-5.067,3.467 -8.7,9.2 -10.9,17.2c-2.2,8 -3.3,19.134 -3.3,33.4c0,14.267 1.1,25.4 3.3,33.4c2.2,8 5.833,13.734 10.9,17.2c5.067,3.467 12.2,5.2 21.4,5.2c15.467,0 28.333,-0.733 38.6,-2.2l1.8,13.2c-6,1.6 -12.033,2.767 -18.1,3.5c-6.067,0.734 -13.5,1.1 -22.3,1.1c-13.467,0 -24.1,-2.3 -31.9,-6.9c-7.8,-4.6 -13.467,-12.066 -17,-22.4c-3.533,-10.333 -5.3,-24.366 -5.3,-42.1c0,-17.733 1.767,-31.766 5.3,-42.1c3.533,-10.333 9.2,-17.8 17,-22.4c7.8,-4.6 18.433,-6.9 31.9,-6.9Z" /><path
       id="path97"
       style="fill:#cccccc;fill-rule:nonzero"
       d="M565.633,125.346c11.333,0 20.3,1.7 26.9,5.1c6.6,3.4 11.4,8.8 14.4,16.2c3,7.4 4.5,17.367 4.5,29.9c0,12.667 -1.5,22.7 -4.5,30.1c-3,7.4 -7.8,12.767 -14.4,16.1c-6.6,3.334 -15.567,5 -26.9,5c-11.2,0 -20.133,-1.666 -26.8,-5c-6.667,-3.333 -11.5,-8.7 -14.5,-16.1c-3,-7.4 -4.5,-17.433 -4.5,-30.1c0,-12.533 1.5,-22.5 4.5,-29.9c3,-7.4 7.833,-12.8 14.5,-16.2c6.667,-3.4 15.6,-5.1 26.8,-5.1Zm0,14.4c-7.2,0 -12.8,1.1 -16.8,3.3c-4,2.2 -6.867,5.934 -8.6,11.2c-1.733,5.267 -2.6,12.7 -2.6,22.3c0,9.6 0.867,17.034 2.6,22.3c1.733,5.267 4.6,9 8.6,11.2c4,2.2 9.6,3.3 16.8,3.3c7.2,0 12.833,-1.1 16.9,-3.3c4.067,-2.2 6.967,-5.933 8.7,-11.2c1.733,-5.266 2.6,-12.7 2.6,-22.3c0,-9.6 -0.867,-17.033 -2.6,-22.3c-1.733,-5.266 -4.633,-9 -8.7,-11.2c-4.067,-2.2 -9.7,-3.3 -16.9,-3.3Z" /><path
       id="path99"
       style="fill:#cccccc;fill-rule:nonzero"
       d="M697.233,125.346c8.667,0 15.233,2.267 19.7,6.8c4.467,4.534 6.7,11.2 6.7,20l0,73l-17,0l0,-68.2c0,-6.4 -1.067,-10.866 -3.2,-13.4c-2.133,-2.533 -5.733,-3.8 -10.8,-3.8c-5.333,0 -10.667,1.167 -16,3.5c-5.333,2.334 -12.533,6.234 -21.6,11.7l0,70.2l-17,0l0,-97.4l14.4,0l1.2,15.4c15.467,-11.866 30,-17.8 43.6,-17.8Z" /><path
       id="path101"
       style="fill:#cccccc;fill-rule:nonzero"
       d="M778.633,141.146l0,57.2c0,4.667 1,8 3,10c2,2 5.4,3 10.2,3l14.8,0l2,13c-2.933,0.8 -6.6,1.434 -11,1.9c-4.4,0.467 -8.067,0.7 -11,0.7c-8.133,0 -14.333,-2.266 -18.6,-6.8c-4.267,-4.533 -6.4,-11.066 -6.4,-19.6l0,-59.4l-17.6,0l0,-12.4l17.6,-1l0,-28.8l17,0l0,28.8l31,0l0,13.4l-31,0Z" /><path
       id="path103"
       style="fill:#cccccc;fill-rule:nonzero"
       d="M874.433,213.146c11.067,0 22.333,-0.8 33.8,-2.4l1.8,11.4c-4.267,1.734 -10.033,3.067 -17.3,4c-7.267,0.934 -14.1,1.4 -20.5,1.4c-11.333,0 -20.367,-1.7 -27.1,-5.1c-6.733,-3.4 -11.667,-8.833 -14.8,-16.3c-3.133,-7.466 -4.7,-17.466 -4.7,-30c0,-12.666 1.533,-22.7 4.6,-30.1c3.067,-7.4 7.833,-12.7 14.3,-15.9c6.467,-3.2 15.1,-4.8 25.9,-4.8c14.533,0 25.133,2.634 31.8,7.9c6.667,5.267 10,13.234 10,23.9c0.133,8.934 -1.733,15.767 -5.6,20.5c-3.867,4.734 -9.733,7.1 -17.6,7.1l-45.2,0c0.533,7.6 1.933,13.467 4.2,17.6c2.267,4.134 5.467,6.967 9.6,8.5c4.133,1.534 9.733,2.3 16.8,2.3Zm-3.2,-73.4c-6.933,0 -12.333,0.967 -16.2,2.9c-3.867,1.934 -6.7,5.167 -8.5,9.7c-1.8,4.534 -2.833,10.934 -3.1,19.2l41.2,0c7.067,0 10.6,-4.8 10.6,-14.4c-0.133,-6.266 -2,-10.733 -5.6,-13.4c-3.6,-2.666 -9.733,-4 -18.4,-4Z" /><path
       id="path105"
       style="fill:#cccccc;fill-rule:nonzero"
       d="M977.033,181.146l-4,0l-27.6,44l-18.6,0l32.6,-50.2l-30.2,-47.2l18.4,0l25,40.2l4.8,0l25,-40.2l18.4,0l-30.2,47.2l32.6,50.2l-18.4,0l-27.8,-44Z" /><path
       id="path107"
       style="fill:#cccccc;fill-rule:nonzero"
       d="M1067.83,141.146l0,57.2c0,4.667 1,8 3,10c2,2 5.4,3 10.2,3l14.8,0l2,13c-2.933,0.8 -6.6,1.434 -11,1.9c-4.4,0.467 -8.067,0.7 -11,0.7c-8.133,0 -14.333,-2.266 -18.6,-6.8c-4.267,-4.533 -6.4,-11.066 -6.4,-19.6l0,-59.4l-17.6,0l0,-12.4l17.6,-1l0,-28.8l17,0l0,28.8l31,0l0,13.4l-31,0Z" /><g
       id="g117"><g
         id="g113"><path
           id="path109"
           style="fill:#cccccc"
           d="M91.985,112.743c-0.628,14.26 -3.441,16.985 -36.389,20.471c-32.971,3.488 -46.518,-2.442 -54.462,-32.662c-4.718,-17.95 5.221,-43.676 30.995,-54.782c4.449,-1.918 19.716,-5.616 23.467,-5.154c-19.631,19.046 -35.683,53.296 -26.112,69.097c6.216,10.262 48.006,9.414 62.501,3.03Z" /><path
           id="path111"
           style="fill:url(#_Radial1);"
           d="M57.967,53.777c15.787,1.842 28.885,14.52 30.893,31.317c0.941,7.874 -0.696,15.467 -4.237,21.888c-16.272,4.762 -40.99,3.007 -45.468,-4.262c-6.895,-11.192 4.67,-35.452 18.812,-48.943Z" /></g><path
         id="path115"
         style="fill:#cccccc"
         d="M24.224,381.302c-6.883,-21.05 -13.425,-63.628 -18.369,-98.864c-8.121,-57.88 -13.226,-107.991 22.961,-130.457c14.084,-8.744 31.025,-8.779 47.453,0c39.022,20.853 33.911,79.154 27.553,130.457c-4.599,37.113 -9.282,63.255 -18.369,98.864c-9.291,36.412 -49.566,35.67 -61.229,0Zm48.984,-199.036c-9.373,-16.113 -27.655,-15.697 -36.738,0c-9.34,16.14 -1.845,170.734 4.592,199.036c3.124,13.734 25.374,13.325 27.553,0c5.052,-30.893 13.99,-182.88 4.593,-199.036Z" /></g><text
       transform="matrix(3.0007955,0,0,2.9660117,-469.01158,-392.43362)"
       style="font-style:normal;font-weight:normal;font-size:85.3333px;line-height:1.25;font-family:sans-serif;white-space:pre;shape-inside:url(#rect138);fill:#cccccc;fill-opacity:1;stroke:none;"
       id="text136"
       xml:space="preserve"><tspan
         sodipodi:role="line"
         x="235.50195"
         y="208.43447"><tspan
           style="font-style:normal;font-variant:normal;font-weight:normal;font-stretch:normal;font-size:67.3206px;font-family:ExoSoft-Regular;-inkscape-font-specification:ExoSoft-Regular;fill:#cccccc">a</tspan></tspan></text></g><defs
     id="defs128"><rect
       id="rect138"
       height="105.39774"
       width="116.43891"
       y="129.96854"
       x="235.50178" /><radialGradient
       gradientTransform="matrix(59.1339,0,0,59.1339,89.1219,81.7097)"
       gradientUnits="userSpaceOnUse"
       r="1"
       cy="0"
       cx="0"
       id="_Radial1"><stop
         id="stop121"
         style="stop-color:#ff520b;stop-opacity:1"
         offset="0" /><stop
         id="stop123"
         style="stop-color:#d14e18;stop-opacity:0.760784"
         offset="0.51" /><stop
         id="stop125"
         style="stop-color:#404040;stop-opacity:0"
         offset="1" /></radialGradient></defs></svg>
