<?xml version="1.0" encoding="UTF-8" standalone="no"?><!DOCTYPE svg PUBLIC "-//W3C//DTD SVG 1.1//EN" "http://www.w3.org/Graphics/SVG/1.1/DTD/svg11.dtd"><svg width="100%" height="100%" viewBox="0 0 258 250" version="1.1" xmlns="http://www.w3.org/2000/svg" xmlns:xlink="http://www.w3.org/1999/xlink" xml:space="preserve" xmlns:serif="http://www.serif.com/" style="fill-rule:evenodd;clip-rule:evenodd;stroke-linejoin:round;stroke-miterlimit:1.41421;"><g><g id="Helmet"><path d="M35.888,217.188c19.049,17.654 127.933,20.056 160.575,0c7.06,-4.338 10.384,15.111 2.939,18.773c-32.142,15.807 -131.843,20.588 -168.412,0c-7.022,-3.954 -0.99,-24.23 4.898,-18.773Z" style="fill:url(#_Radial1);"/><path d="M216.587,170.329c-16.889,30.727 -38.757,43.243 -77.279,45.951c-99.027,6.962 -125.153,-17.585 -137.605,-83.102c-12.089,-63.6 42.051,-124.683 103.489,-132.33c8.977,-1.118 17.837,-1.118 26.449,-0.076c-45.071,42.994 -81.926,120.309 -59.952,155.975c14.272,23.166 93.043,28.757 144.898,13.582Z" style="fill:url(#_Radial2);"/><path d="M132.049,14.535c41.751,4.873 76.39,38.403 81.701,82.825c2.49,20.824 -1.84,40.906 -11.206,57.887c-43.033,12.593 -108.404,7.953 -120.248,-11.271c-18.235,-29.599 12.35,-93.761 49.753,-129.441Z" style="fill:url(#_Radial3);"/><ellipse cx="237.167" cy="20.234" rx="20.58" ry="20.234" style="fill:#ff5c6b;"/></g></g><defs><radialGradient id="_Radial1" cx="0" cy="0" r="1" gradientUnits="userSpaceOnUse" gradientTransform="matrix(175.791,47.1634,-26.4372,98.0077,27.8263,225.739)"><stop offset="0" style="stop-color:#434343;stop-opacity:1"/><stop offset="1" style="stop-color:#a6a6a6;stop-opacity:1"/></radialGradient><radialGradient id="_Radial2" cx="0" cy="0" r="1" gradientUnits="userSpaceOnUse" gradientTransform="matrix(207.322,63.6368,-62.8727,203.208,18.5273,88.4096)"><stop offset="0" style="stop-color:#404040;stop-opacity:1"/><stop offset="0.65" style="stop-color:#4e4e4e;stop-opacity:0.894118"/><stop offset="0.84" style="stop-color:#737373;stop-opacity:0.607843"/><stop offset="1" style="stop-color:#9e9e9e;stop-opacity:0.270588"/></radialGradient><radialGradient id="_Radial3" cx="0" cy="0" r="1" gradientUnits="userSpaceOnUse" gradientTransform="matrix(136.753,0,0,136.753,203.617,65.5667)"><stop offset="0" style="stop-color:#ff5c6b;stop-opacity:1"/><stop offset="0.51" style="stop-color:#d15561;stop-opacity:1"/><stop offset="1" style="stop-color:#404040;stop-opacity:1"/></radialGradient></defs></svg>