<?xml version="1.0" encoding="UTF-8" standalone="no"?><!DOCTYPE svg PUBLIC "-//W3C//DTD SVG 1.1//EN" "http://www.w3.org/Graphics/SVG/1.1/DTD/svg11.dtd"><svg width="100%" height="100%" viewBox="0 0 61 61" version="1.1" xmlns="http://www.w3.org/2000/svg" xmlns:xlink="http://www.w3.org/1999/xlink" xml:space="preserve" xmlns:serif="http://www.serif.com/" style="fill-rule:evenodd;clip-rule:evenodd;stroke-linecap:round;stroke-linejoin:round;stroke-miterlimit:1.5;"><g id="Menu"><path d="M32.171,33.671c-1.932,1.104 -4.396,0.432 -5.5,-1.5c-1.104,-1.932 -0.432,-4.396 1.5,-5.5c1.932,-1.104 4.396,-0.432 5.5,1.5c1.104,1.932 0.432,4.396 -1.5,5.5Z" style="fill:#626262;"/><path d="M48.171,33.671c-1.932,1.104 -4.396,0.432 -5.5,-1.5c-1.104,-1.932 -0.432,-4.396 1.5,-5.5c1.932,-1.104 4.396,-0.432 5.5,1.5c1.104,1.932 0.432,4.396 -1.5,5.5Z" style="fill:#626262;"/><path d="M16.171,33.671c-1.932,1.104 -4.396,0.432 -5.5,-1.5c-1.104,-1.932 -0.432,-4.396 1.5,-5.5c1.932,-1.104 4.396,-0.432 5.5,1.5c1.104,1.932 0.432,4.396 -1.5,5.5Z" style="fill:#626262;"/><circle cx="30.171" cy="30.171" r="28.921" style="fill:none;stroke:#626262;stroke-width:2.5px;"/></g></svg>